<svg id="Calque_1" data-name="Calque 1" xmlns="http://www.w3.org/2000/svg" viewBox="0 0 609.41 222.6"><defs><style>.cls-1{fill:#f1be6b;}</style></defs><path class="cls-1" d="M202.55,112.51v56.67H185.46V112.51a6.8,6.8,0,0,0-2-4.71c-2.34-2.06-4.62-4.12-6.87-6.19a10.56,10.56,0,0,0-7.13-2.69,12.68,12.68,0,0,0-7.94,3.1l-16.29,13.19v-.14l-16.42-13.19A12.58,12.58,0,0,0,121,98.79a10.67,10.67,0,0,0-7.33,3q-3.3,3-6.8,6a6.76,6.76,0,0,0-2,4.71v56.67H87.6V112.51a22.83,22.83,0,0,1,4.31-13.32A96.63,96.63,0,0,1,99.45,91q9.15-9.56,23.42-9.29,7.94.14,15.48,5.79a29.32,29.32,0,0,1,6.73,6.46q9.69-12.12,22.34-12.25,14.13-.14,23.29,9.42,6.58,6.87,7.54,8.08A22.89,22.89,0,0,1,202.55,112.51Zm-57.34,56.67V118.84L163,104.57v64.61Z"/><path d="M285.07,145.63,265.55,163.4v.13a30.66,30.66,0,0,1-19.92,7.13,28.33,28.33,0,0,1-19.39-7.26l-20.05-17.91v-35.4q.81-11.43,10.9-20.19a27.91,27.91,0,0,1,18.84-7.13H256q13.32,0,22.48,11.57a27.34,27.34,0,0,1,2.42,3.77,25.73,25.73,0,0,1,3.1,6.33,53.88,53.88,0,0,1,1.08,5.52v35.67Zm-17.77-8.08v-25a16.29,16.29,0,0,0-1.89-6.19c0-.09-.09-.22-.27-.4a12.91,12.91,0,0,0-9.55-5.65q-19.53,0-19.92.13a12.45,12.45,0,0,0-8.22,3.9,11.35,11.35,0,0,0-3.63,8.21v25q14.27,12.39,14.4,12.52,4,3.5,7.68,3.5t8.21-4Q260.83,143.61,267.3,137.55Z"/><path class="cls-1" d="M301.62,129.61a26.12,26.12,0,0,1-3.36-2.69A23.6,23.6,0,0,1,289,107.53V82.77h17.36v23a11,11,0,0,0,3.37,8.08,12,12,0,0,0,8.07,3.64h-.13a23.87,23.87,0,0,0-7.14,4Q308.22,123.29,301.62,129.61ZM353,131.36q3.36,3.22,14,14v23.82H349.41v-18l-12-11.44a12.68,12.68,0,0,0-18.18-.14L306.6,151.15v18H289V145.49l23.15-22.34q4.71-4.58,15.88-5.25a31.4,31.4,0,0,1,8.62,1.08,23.84,23.84,0,0,1,7.13,4A93.35,93.35,0,0,1,353,131.36Zm1.35-1.75q-3.37-3.23-8.89-8.08a35.23,35.23,0,0,0-7.13-4.17h-.14a12.06,12.06,0,0,0,8.08-3.63,11,11,0,0,0,3.36-8.08v-23H366.9V107.4q0,11.31-9.28,19.38Q357.22,127.19,354.39,129.61Z"/><path class="cls-1" d="M388.71,82.5v86.41H371.08V82.5Z"/><path class="cls-1" d="M410.11,64.46v75.38a6.57,6.57,0,0,0,2.15,4.71q3.36,3.1,6.87,6.19a10.51,10.51,0,0,0,7.13,2.69,12.72,12.72,0,0,0,7.94-3.09l16.56-13.19v21a30.52,30.52,0,0,1-22.48,12.51Q414,170.8,405,161.24c-4.48-4.75-7-7.49-7.53-8.21a22.23,22.23,0,0,1-4.31-13.19V64.46Zm3.23,35.81V82.77h37.15v17.5Z"/><path class="cls-1" d="M533,145.63,513.48,163.4v.13a30.62,30.62,0,0,1-19.92,7.13,28.29,28.29,0,0,1-19.38-7.26l-20.06-17.91v-35.4Q454.93,98.66,465,89.9a27.91,27.91,0,0,1,18.84-7.13h20.06q13.32,0,22.48,11.57a29.58,29.58,0,0,1,2.42,3.77,25.61,25.61,0,0,1,3.09,6.33A53.88,53.88,0,0,1,533,110v35.67Zm-17.77-8.08v-25a16.42,16.42,0,0,0-1.88-6.19c0-.09-.09-.22-.27-.4a12.93,12.93,0,0,0-9.56-5.65q-19.51,0-19.92.13a12.42,12.42,0,0,0-8.21,3.9,11.35,11.35,0,0,0-3.63,8.21v25q14.26,12.39,14.4,12.52,4,3.5,7.67,3.5t8.21-4Q508.78,143.61,515.23,137.55Z"/><g id="NOYhj3.tif"><path d="M244.83,33.06c5,.19,10,.26,15,.63,4.58.34,8.8,2.19,12.93,4A9.87,9.87,0,0,1,276.32,41c1.55,2.14,2.83,4.49,4.19,6.76s1.23,4.07-.71,6.05c-1.48,1.52-3,3-4.5,4.52-1.8,1.82-1.83,2.05-.7,4.29.08.15.18.3.26.46,1,2.14.38,3.85-1.87,4.68q-8.61,3.2-17.28,6.26a58,58,0,0,1-6.91,2.12c-5.35,1.16-10.38-.16-15.3-2.28C228,71.53,222.39,69.3,216.83,67c-3-1.25-3.63-2.58-2.15-5.45a2.32,2.32,0,0,0-.54-3c-1.62-1.63-3.26-3.24-4.86-4.89a4.16,4.16,0,0,1-.69-5.62c1.46-2.5,3-5,4.5-7.42,1.35-2.18,3.57-3.09,5.84-4a45.42,45.42,0,0,1,19.88-3.37c2,.1,4,0,6,0ZM218.44,51.6h0c0,.89,0,1.78,0,2.66-.08,1.42.52,2.08,2,2,1.7,0,3.42,0,5.13,0,1.41,0,2.08-.59,2-2q0-.7,0-1.41c.09-4.05-.57-3.59,3.95-3.63,1.06,0,1.51.45,1.51,1.47,0,1.18,0,2.37,0,3.55,0,1.39.57,2.08,2,2s3.07,0,4.6,0c2.33,0,2.47-.17,2.5-2.56V53c0-4.16-.51-3.75,4-3.78,1,0,1.53.39,1.5,1.46,0,1.24,0,2.48,0,3.72s.56,1.87,1.82,1.86,2.24,0,3.36,0c4.27,0,4,.09,4-3.91,0-3.34,0-3.3,3.36-3.15,1.17,0,1.55.55,1.51,1.64s0,2.36,0,3.54.53,1.87,1.78,1.87h5.67a1.56,1.56,0,0,0,1.72-1.77c0-1.89,0-3.78,0-5.67,0-1.29-.66-1.78-1.9-1.75s-2.47,0-3.71,0c-1,0-1.42-.41-1.41-1.38q0-1.77,0-3.54c0-1.77-.33-2.08-2.05-2.11s-3.3,0-4.95,0c-1.88,0-2.13.28-2.17,2.18,0,.41,0,.82,0,1.24,0,4,.46,3.6-3.79,3.62h-.35c-1,0-1.38-.5-1.39-1.43,0-1.3,0-2.6,0-3.9s-.52-1.73-1.71-1.71c-1.89,0-3.78,0-5.66,0-1.23,0-1.71.61-1.74,1.72,0,.53,0,1.07,0,1.6,0,4.2.39,3.66-3.85,3.73-1.27,0-1.68-.58-1.66-1.72s0-2.48,0-3.72a1.44,1.44,0,0,0-1.64-1.62c-1.95,0-3.89,0-5.84,0a1.33,1.33,0,0,0-1.53,1.5c0,1.18-.06,2.36,0,3.54.07,1.42-.47,2.1-1.95,2-1.12-.07-2.24,0-3.36,0s-1.77.45-1.74,1.67C218.46,49.71,218.44,50.66,218.44,51.6Z"/></g></svg>