<svg xmlns="http://www.w3.org/2000/svg" viewBox="0 0 637.85 311.88"><defs><style>.cls-1{font-size:50px;font-family:LEMONMILK-Bold, LEMON MILK;font-weight:700;letter-spacing:-0.06em;}</style></defs><title>logo2</title><g id="Left"><rect x="43.94" y="47.05" width="34.55" height="136.15" rx="14.13"/><rect y="62.63" width="34.55" height="104.98" rx="14.13"/><rect x="87.87" y="31.21" width="34.55" height="167.82" rx="14.13"/><path d="M330.2,240.76" transform="translate(-93.97 -125.64)"/><polygon points="185.12 98.78 88.17 98.78 88.17 131.46 203.62 131.46 203.62 98.78 185.12 98.78"/></g><g id="Layer_2" data-name="Layer 2"><rect x="611.37" y="158.2" width="33.99" height="165.12" rx="13.91" transform="translate(1162.76 355.88) rotate(-180)"/><rect x="654.6" y="173.78" width="33.99" height="133.97" rx="13.91" transform="translate(1249.22 355.88) rotate(-180)"/><rect x="697.83" y="189.11" width="33.99" height="103.29" rx="13.91" transform="translate(1335.68 355.88) rotate(-180)"/><rect x="435.24" y="98.78" width="115.45" height="32.68"/></g><g id="Layer_3" data-name="Layer 3"><polygon points="210.6 0 319.74 72.99 428.56 0 428.56 217.84 396.25 193.78 396.25 58.05 319.74 108.92 210.6 37.26 210.6 0"/><polygon points="210.6 217.84 210.6 73.95 319.58 145.9 373.85 109.06 373.85 145.9 319.74 181.74 243.14 131.6 243.14 193.11 210.6 217.84"/></g><g id="Layer_4" data-name="Layer 4"><path d="M385.77,391.84l2.59-3.49a18.8,18.8,0,0,0-21.58-4.23v5.1a15.1,15.1,0,0,1,7.88-2.31A15.74,15.74,0,0,1,385.77,391.84Zm-11,26.52a15.3,15.3,0,0,1-8-2.29v5.05a20,20,0,0,0,8.08,1.71,18.73,18.73,0,0,0,13.5-5.79l-2.57-3.57A15.8,15.8,0,0,1,374.73,418.36Z" transform="translate(-93.97 -125.64)"/><path d="M387,402.66a20.23,20.23,0,1,1,20.19,20.16A20.3,20.3,0,0,1,387,402.66Zm36,0a15.74,15.74,0,1,0-15.77,15.7A15.81,15.81,0,0,0,423,402.63Z" transform="translate(-93.97 -125.64)"/><path d="M452.82,415.84H431.33l-2.88,6.47h-4.81l18.19-40h.49l18.21,40H455.7ZM451.11,412l-9-20.24-9,20.24Z" transform="translate(-93.97 -125.64)"/><path d="M456.6,402.66a20.42,20.42,0,0,1,20.22-20.27,19.67,19.67,0,0,1,13.52,6l-2.58,3.49a15.76,15.76,0,0,0-11.11-4.93,15.73,15.73,0,1,0,11.13,26.56l2.56,3.57a18.77,18.77,0,0,1-13.5,5.78A20.35,20.35,0,0,1,456.6,402.66Z" transform="translate(-93.97 -125.64)"/><path d="M521.6,383v39.36h-4.42v-17.5H497.23v17.5h-4.44V383h4.44v17.46h19.95V383Z" transform="translate(-93.97 -125.64)"/><path d="M527,383h4.44v39.36H527Z" transform="translate(-93.97 -125.64)"/><path d="M568.38,382.86v40.06h-.22l-27-30v29.4h-4.45v-40H537l27,29.94V382.86Z" transform="translate(-93.97 -125.64)"/><path d="M610.7,404.27c0,11-8.5,18.58-18.66,18.58a20.22,20.22,0,1,1-.17-40.43,22.35,22.35,0,0,1,14.26,5.91L603.64,392a18.22,18.22,0,0,0-11.79-5.15,15.75,15.75,0,1,0,.37,31.5c7.69,0,13.74-5.16,13.74-12.11,0-.3,0-.57,0-.79H591.82v-4h18.71A26.31,26.31,0,0,1,610.7,404.27Z" transform="translate(-93.97 -125.64)"/><text class="cls-1" transform="translate(145.89 296.79)">MBM</text></g></svg>